<svg xmlns="http://www.w3.org/2000/svg" width="28.571" height="25" viewBox="0 0 28.571 25">
  <path id="list-icon" d="M8.333,12.518v4.464a1.339,1.339,0,0,1-1.339,1.339H1.339A1.339,1.339,0,0,1,0,16.982V12.518a1.339,1.339,0,0,1,1.339-1.339H6.994A1.339,1.339,0,0,1,8.333,12.518ZM0,21.446v4.464A1.339,1.339,0,0,0,1.339,27.25H6.994a1.339,1.339,0,0,0,1.339-1.339V21.446a1.339,1.339,0,0,0-1.339-1.339H1.339A1.339,1.339,0,0,0,0,21.446ZM6.994,2.25H1.339A1.339,1.339,0,0,0,0,3.589V8.054A1.339,1.339,0,0,0,1.339,9.393H6.994A1.339,1.339,0,0,0,8.333,8.054V3.589A1.339,1.339,0,0,0,6.994,2.25Zm4.464,25H27.232a1.339,1.339,0,0,0,1.339-1.339V21.446a1.339,1.339,0,0,0-1.339-1.339H11.458a1.339,1.339,0,0,0-1.339,1.339v4.464A1.339,1.339,0,0,0,11.458,27.25ZM10.119,3.589V8.054a1.339,1.339,0,0,0,1.339,1.339H27.232a1.339,1.339,0,0,0,1.339-1.339V3.589A1.339,1.339,0,0,0,27.232,2.25H11.458A1.339,1.339,0,0,0,10.119,3.589Zm1.339,14.732H27.232a1.339,1.339,0,0,0,1.339-1.339V12.518a1.339,1.339,0,0,0-1.339-1.339H11.458a1.339,1.339,0,0,0-1.339,1.339v4.464A1.339,1.339,0,0,0,11.458,18.321Z" transform="translate(0 -2.25)" fill="#476c81"/>
</svg>
